<mxfile host="app.diagrams.net" modified="2023-11-27T14:53:40.699Z" agent="Mozilla/5.0 (Windows NT 10.0; Win64; x64) AppleWebKit/537.36 (KHTML, like Gecko) Chrome/119.0.0.0 Safari/537.36" version="22.1.4" etag="EUfzIZtQsCf_1g0G9lv_" type="github">
  <diagram name="Page-1" id="L62dyXVLqGSR-5i-k95E">
    <mxGraphModel>
      <root>
        <mxCell id="0" />
        <mxCell id="1" parent="0" />
      </root>
    </mxGraphModel>
  </diagram>
</mxfile>
